PathFileType	4	(X/Y/Z)	./resultDataOpenSim/trcMotMarkerGrf/sub10/qtm-05-06.trc
DataRate	CameraRate	NumFrames	NumMarkers	Units	OrigDataRate	OrigDataStartFrame	OrigNumFrames
250.000000	250.000000	14	24	m	250.000000	314	502
Frame#	Time	L.Toe.Tip			R.Toe.Tip			L.Ankle.Lat			R.Ankle.Lat			L.Ankle.Med			R.Ankle.Med			L.Heel			R.Heel			L.Knee.Lat			R.Knee.Lat			L.Knee.Med			R.Knee.Med			L.Thigh.Upper			R.Thigh.Upper			L.ASIS			R.ASIS			V.Sacral			L.Acromium			R.Acromium			C7			L.Elbow			R.Elbow			L.Wrist.Lat			R.Wrist.Lat
		X1	Y1	Z1	X2	Y2	Z2	X3	Y3	Z3	X4	Y4	Z4	X5	Y5	Z5	X6	Y6	Z6	X7	Y7	Z7	X8	Y8	Z8	X9	Y9	Z9	X10	Y10	Z10	X11	Y11	Z11	X12	Y12	Z12	X13	Y13	Z13	X14	Y14	Z14	X15	Y15	Z15	X16	Y16	Z16	X17	Y17	Z17	X18	Y18	Z18	X19	Y19	Z19	X20	Y20	Z20	X21	Y21	Z21	X22	Y22	Z22	X23	Y23	Z23	X24	Y24	Z24

314	1.252	0.064187951	-0.056479342	-0.10552095	0.88733698	0.046441176	0.045583324	-0.02663897	0.040175321	-0.14826385	0.74865304	0.052904901	0.088151657	-0.0092326104	0.056743439	-0.06832609	0.76261964	0.081715081	0.00343116	-0.092457781	0.053061594	-0.10793962	0.6984089	0.02626024	0.043254507	0.17587209	0.37085287	-0.17235252	0.66104086	0.43841908	0.10324134	0.18952773	0.33745446	-0.053004757	0.66049199	0.44000618	-0.023601319	0.30817397	0.73851247	-0.20761812	0.45341735	0.78192936	0.15716972	0.40029342	0.83036332	-0.18127433	0.47972998	0.85681131	0.053998666	0.24927551	0.85844924	0.014359915	0.43253851	1.3143926	-0.19840949	0.413364	1.3096188	0.12131205	0.34199198	1.3430512	-0.04742934	0.47249292	0.9691549	-0.2702313	0.20582741	1.0341153	0.13603596	0.7101232	0.9553606	-0.19057563	0.1682933	0.83762116	0.2748979
315	1.256	0.065077697	-0.056438901	-0.10558391	0.88833818	0.04507371	0.045188507	-0.023220025	0.042313442	-0.14895532	0.74963535	0.052915958	0.08819774	-0.0053063101	0.058405755	-0.069116928	0.76373909	0.081477831	0.0034729497	-0.088422502	0.056400158	-0.10822799	0.69903547	0.026763555	0.043586019	0.18196824	0.37148512	-0.17213518	0.66807753	0.44005515	0.10336235	0.19547914	0.33782748	-0.052860584	0.66627547	0.44153426	-0.023901543	0.3152763	0.73828522	-0.20708124	0.45977552	0.78337589	0.15811839	0.40763485	0.83027418	-0.18022981	0.48635416	0.85771471	0.054833537	0.25887362	0.8590022	0.013700537	0.43914109	1.3153403	-0.1972737	0.42047215	1.3102044	0.12239607	0.34890627	1.3437089	-0.046242054	0.47726743	0.96958812	-0.26942665	0.21360004	1.0342719	0.13652704	0.71450871	0.95523091	-0.18926939	0.17535681	0.83814931	0.27569478
316	1.26	0.06610724	-0.056409739	-0.10563686	0.88934432	0.044007763	0.044738499	-0.019581826	0.044436472	-0.14969293	0.75056883	0.052988878	0.088102829	-0.0011201775	0.060031434	-0.069934638	0.76458288	0.081252093	0.0034239232	-0.084097406	0.059773916	-0.108512	0.69957706	0.027189232	0.043807343	0.18825727	0.3721229	-0.1719439	0.67519729	0.44176389	0.10345573	0.2015872	0.33817527	-0.052747394	0.67207322	0.44332087	-0.024304444	0.32247725	0.73801595	-0.20659351	0.46600504	0.78494212	0.15904406	0.41505699	0.83021792	-0.17911046	0.49304264	0.85880389	0.055757833	0.26818606	0.8596804	0.013122408	0.44580429	1.3163447	-0.19608377	0.42758527	1.3108747	0.1234912	0.35580931	1.3444003	-0.044963911	0.48191462	0.97005535	-0.26866063	0.22148196	1.0344651	0.13702462	0.71881117	0.95501075	-0.18803077	0.18251718	0.8386803	0.27648713
317	1.264	0.067289823	-0.056395764	-0.10568361	0.89032676	0.04323487	0.044332281	-0.015709176	0.046535197	-0.15047038	0.75145837	0.053114136	0.087897843	0.0033577756	0.06160845	-0.070771941	0.76524696	0.08104536	0.0032785492	-0.07945494	0.063177236	-0.10878073	0.70009497	0.027562647	0.043897914	0.19475279	0.37273652	-0.17177466	0.68215629	0.44349424	0.10342971	0.20788628	0.33849197	-0.052674841	0.67789884	0.44528629	-0.024782373	0.32976354	0.73771583	-0.2061404	0.4721306	0.78660736	0.15992605	0.42255089	0.83019028	-0.17792773	0.49978069	0.86001834	0.056764194	0.27629814	0.86045568	0.012635862	0.45251842	1.3174079	-0.1948426	0.43469718	1.3116299	0.12459889	0.36265352	1.3451594	-0.04355503	0.48644513	0.97056491	-0.26787454	0.22945227	1.0346941	0.13754168	0.72307444	0.95466403	-0.1868649	0.18976319	0.83920808	0.27727614
318	1.268	0.06862104	-0.056412205	-0.10572912	0.89126691	0.042635869	0.044062924	-0.011585944	0.048587846	-0.15126495	0.75227886	0.053283573	0.087642072	0.0081471912	0.063119208	-0.071629871	0.76587608	0.080867558	0.0030471075	-0.074475094	0.06659952	-0.10901358	0.70062302	0.027901978	0.043875531	0.20146624	0.37330339	-0.17163115	0.68883662	0.44520514	0.10325442	0.21442521	0.33877284	-0.052655879	0.68376483	0.44736197	-0.025293425	0.33712531	0.73738638	-0.20570939	0.47819676	0.78835311	0.16076219	0.43010544	0.83018116	-0.17668943	0.50654531	0.86128551	0.057839459	0.28320009	0.86131026	0.012160581	0.45927558	1.3185241	-0.19355223	0.44180135	1.3124638	0.12572112	0.36943853	1.3460042	-0.04206069	0.49091123	0.97116147	-0.26704192	0.23743838	1.03497	0.13815208	0.72730971	0.95418402	-0.18576656	0.19709904	0.8397173	0.27806688
319	1.272	0.070093848	-0.056486782	-0.10576358	0.89217498	0.042081622	0.043976426	-0.0072056318	0.050561963	-0.15205266	0.75301077	0.053468606	0.087390143	0.013250541	0.064545299	-0.072512196	0.76656021	0.080705442	0.002770222	-0.069153703	0.070024246	-0.10919389	0.70115026	0.028208816	0.043794233	0.20840277	0.37381731	-0.17152726	0.69523843	0.44684422	0.10296345	0.2212417	0.33900448	-0.052708221	0.68966192	0.44949027	-0.025777684	0.34455212	0.73702029	-0.20527792	0.48424244	0.79016673	0.16155848	0.43770503	0.83018632	-0.17539467	0.51331698	0.86256885	0.058960588	0.28949369	0.86224725	0.011605087	0.46606353	1.319685	-0.19221951	0.44888594	1.3133629	0.12685206	0.37619424	1.3469308	-0.040568517	0.49535076	0.97188001	-0.26618002	0.2453719	1.0353095	0.13892655	0.73149942	0.95358817	-0.18472766	0.20452919	0.8401902	0.27886764
320	1.276	0.071691583	-0.056652727	-0.1057765	0.89306013	0.041521321	0.044053175	-0.0025703838	0.052430157	-0.15283327	0.75365412	0.053625049	0.087169853	0.018659341	0.065875407	-0.07342067	0.76729683	0.080533563	0.0024979184	-0.063501297	0.073433833	-0.1093224	0.70163694	0.028472006	0.043717064	0.21556685	0.37427907	-0.17147649	0.70137903	0.44834924	0.10260058	0.22833292	0.33916241	-0.052855979	0.69555035	0.4516197	-0.026186199	0.35203119	0.73661061	-0.20481611	0.49028174	0.7920393	0.16231992	0.44532721	0.8302109	-0.17403537	0.52007435	0.86387925	0.060087897	0.29566208	0.86326313	0.010947048	0.47286445	1.3208852	-0.19085466	0.45593357	1.3143145	0.12797911	0.38293785	1.3479215	-0.039131818	0.49976926	0.97273033	-0.26532982	0.25325982	1.0357305	0.1398519	0.73562002	0.95289095	-0.18374682	0.21203922	0.84061728	0.27968195
321	1.28	0.073381414	-0.056935328	-0.10576803	0.89390041	0.04097903	0.044219984	0.0023273648	0.054183334	-0.153632	0.75421481	0.053720325	0.086981042	0.024362106	0.06710805	-0.074352144	0.76802642	0.080337293	0.0022595921	-0.057529356	0.076819193	-0.10942354	0.70204828	0.028679461	0.043681601	0.22297661	0.3746829	-0.17147457	0.70725625	0.44965984	0.10219715	0.23563423	0.33920972	-0.053144388	0.70136998	0.45369532	-0.026515762	0.35954724	0.7361621	-0.20431977	0.49630819	0.79396018	0.16304735	0.45294213	0.83026153	-0.17260553	0.52679822	0.86526468	0.061175129	0.30185012	0.86434875	0.010228971	0.47965741	1.3221191	-0.18946542	0.46292677	1.3153153	0.12909407	0.38966162	1.3489551	-0.03775218	0.50415072	0.97370687	-0.26452403	0.26118971	1.0362465	0.14082545	0.73966047	0.95209509	-0.18283029	0.21962893	0.84099937	0.28051189
322	1.284	0.075122301	-0.057334191	-0.10574825	0.89465103	0.040501736	0.044384186	0.0075116727	0.055834537	-0.15447362	0.7546909	0.053755212	0.086807645	0.030346081	0.068247193	-0.07529819	0.76868241	0.080118157	0.0020556385	-0.051240895	0.080182815	-0.10953633	0.70237558	0.028828229	0.043685086	0.230662	0.37501944	-0.17150241	0.71286528	0.45072685	0.10177992	0.24303755	0.33909732	-0.053646883	0.70705564	0.45565362	-0.026789619	0.36708382	0.73569504	-0.20382792	0.50229284	0.79590555	0.1637316	0.46051737	0.83034095	-0.17110826	0.53348145	0.86677993	0.062205017	0.30803068	0.86551202	0.0094975095	0.48642375	1.32338	-0.18805473	0.46985482	1.3163648	0.13019845	0.3963452	1.3500131	-0.03640917	0.50847302	0.97479762	-0.26377236	0.26923321	1.0368456	0.14174	0.74362807	0.95120211	-0.18198135	0.22736594	0.84134383	0.28137093
323	1.288	0.076869722	-0.057801671	-0.10574256	0.89527455	0.040119578	0.044470443	0.01299624	0.057418195	-0.15535611	0.75508201	0.053759345	0.086631427	0.036590026	0.069306397	-0.076244164	0.76922358	0.079885183	0.0018684276	-0.044644961	0.083534334	-0.10969486	0.70263368	0.028925954	0.043701077	0.23863149	0.37528101	-0.17154417	0.71820837	0.45151974	0.10137008	0.25050782	0.33878956	-0.054394778	0.71254691	0.45743204	-0.027011983	0.37462871	0.73523077	-0.20337934	0.50815492	0.79781655	0.16433604	0.46802713	0.83044756	-0.16955297	0.5401136	0.86843751	0.063201168	0.31417034	0.86678243	0.0087377722	0.49314885	1.3246625	-0.18662596	0.47671476	1.3174522	0.13129688	0.40296948	1.3510808	-0.035089235	0.51272509	0.97598533	-0.26306657	0.27733185	1.0374683	0.14259146	0.74753681	0.95021778	-0.18119329	0.23534763	0.84165475	0.28227781
324	1.292	0.078572654	-0.058230291	-0.10579951	0.89576283	0.039833486	0.044448861	0.018755176	0.058990216	-0.15625001	0.75539898	0.053766847	0.08644694	0.043050733	0.070324263	-0.077172496	0.76964587	0.079647174	0.0016787985	-0.037785	0.0868958	-0.10991536	0.70284646	0.02898517	0.043707154	0.2468496	0.37545346	-0.17160322	0.72329499	0.45203176	0.10097709	0.25820588	0.33830388	-0.05527856	0.71779948	0.45898296	-0.027174679	0.38217375	0.73477495	-0.2029713	0.51377399	0.79960164	0.16479507	0.47545697	0.83057638	-0.16795159	0.54667592	0.87019427	0.064195696	0.32026527	0.86820625	0.0078696465	0.49982007	1.325961	-0.18518823	0.48350193	1.3185616	0.13239151	0.40952516	1.3521486	-0.033792709	0.51691157	0.97724667	-0.26239293	0.28533391	1.0380195	0.14348729	0.75139231	0.94914828	-0.18046288	0.24360387	0.84192116	0.28323112
325	1.296	0.080182815	-0.058468508	-0.10597746	0.89614073	0.039621892	0.044346089	0.024720942	0.060628539	-0.15712934	0.75563656	0.053799353	0.086280639	0.049654341	0.071372927	-0.078071142	0.76997911	0.07941007	0.0014781026	-0.030751933	0.090313635	-0.11019943	0.70303265	0.029016809	0.043697953	0.25528055	0.37552288	-0.17171175	0.72814428	0.45228015	0.10060659	0.26636612	0.33769565	-0.056119962	0.7227985	0.46027553	-0.027297268	0.38971193	0.73432177	-0.20257943	0.5191254	0.80121409	0.16508762	0.48279763	0.83072536	-0.16632174	0.55317346	0.87198893	0.065207286	0.32633453	0.8698012	0.0068646794	0.50642698	1.3272715	-0.18375462	0.49020496	1.3196894	0.13348087	0.41600555	1.3532136	-0.032523439	0.52104174	0.97856165	-0.26174362	0.29315665	1.0384272	0.14452048	0.75519069	0.94799611	-0.17980283	0.25207605	0.84212442	0.28420703
326	1.3	0.081691634	-0.05836596	-0.10630324	0.89644768	0.039456594	0.044224219	0.030792691	0.062419525	-0.15798721	0.7557377	0.053869326	0.086194705	0.056308198	0.072549931	-0.078926591	0.7702696	0.079177198	0.0012718577	-0.023653991	0.093857478	-0.11054983	0.70319798	0.029027723	0.043680319	0.26393584	0.37549377	-0.17191189	0.73278296	0.4523031	0.10026858	0.27504451	0.33699951	-0.056859414	0.72755371	0.46128827	-0.02741809	0.39724262	0.73386997	-0.20219116	0.52438269	0.80272139	0.16531071	0.49004392	0.83090085	-0.16468512	0.55962908	0.87377847	0.06624066	0.33246428	0.87147558	0.0058833337	0.51296091	1.3285914	-0.18233856	0.49681348	1.3208432	0.13455806	0.42239808	1.3542742	-0.031281228	0.52511822	0.97992418	-0.26111944	0.30084998	1.038695	0.14567343	0.75892694	0.94675452	-0.17923449	0.26066969	0.84226098	0.28518899
327	1.304	0.083171798	-0.057829747	-0.10673225	0.89670728	0.039319466	0.04413419	0.036867638	0.064430886	-0.15879731	0.75565136	0.053975934	0.086236444	0.062934368	0.073959663	-0.079702141	0.77055361	0.078953451	0.0010753278	-0.016550504	0.097604144	-0.11098699	0.70333732	0.029023399	0.043664674	0.27282316	0.37538401	-0.17220992	0.73723786	0.45215221	0.099971975	0.28412089	0.33621509	-0.057578847	0.7320804	0.46201023	-0.027551065	0.40477527	0.73343131	-0.20181961	0.52976385	0.80422962	0.165606	0.49720219	0.83111236	-0.16305904	0.56603719	0.8755426	0.067282741	0.33877759	0.87307608	0.005187381	0.51941533	1.3299169	-0.1809533	0.5033212	1.3220289	0.13561387	0.42869354	1.3553272	-0.030065733	0.52913815	0.98133684	-0.26052211	0.30851525	1.0388868	0.14687142	0.76260341	0.94540668	-0.1787829	0.26931655	0.84234328	0.28618458
